<svg width="30" height="30" viewBox="0 0 24 24" xmlns="http://www.w3.org/2000/svg">
  <defs>
    <linearGradient id="telegramGradient" x1="0%" y1="0%" x2="100%" y2="0%" gradientUnits="objectBoundingBox">
      <stop offset="0%" stop-color="#ffffff">
        <animate attributeName="stop-color" values="#ffffff;#a8d8ff;#ffffff" dur="4s" repeatCount="indefinite" />
      </stop>
      <stop offset="50%" stop-color="#a8d8ff">
        <animate attributeName="stop-color" values="#a8d8ff;#ffffff;#a8d8ff" dur="4s" repeatCount="indefinite" />
      </stop>
      <stop offset="100%" stop-color="#ffffff">
        <animate attributeName="stop-color" values="#ffffff;#a8d8ff;#ffffff" dur="4s" repeatCount="indefinite" />
      </stop>
    </linearGradient>
    <filter id="glow">
      <feGaussianBlur stdDeviation="2" result="coloredBlur"/>
      <feMerge>
        <feMergeNode in="coloredBlur"/>
        <feMergeNode in="SourceGraphic"/>
      </feMerge>
    </filter>
  </defs>
  <path d="M12 2C6.48 2 2 6.48 2 12s4.48 10 10 10 10-4.48 10-10S17.52 2 12 2zm4.64 6.8c-.15 1.58-.8 5.42-1.13 7.19-.14.75-.42 1-.68 1.03-.58.05-1-.39-1.58-.76-.89-.6-1.4-.96-2.27-1.54-1-.68-.35-1.05.22-1.66.15-.16 2.79-2.56 2.84-2.78.01-.05.02-.24-.09-.34-.11-.1-.27-.06-.39-.04-.16.03-2.71 1.72-3.07 1.96-.29.2-.58.3-.89.3-.29 0-.56-.13-.86-.24-.35-.13-.75-.28-1.05-.44-.42-.21-.72-.32-.69-.68.02-.19.28-.38.77-.58 1.79-.78 4.8-1.85 7.02-2.6 1.74-.59 2.65-.44 2.91-.29.2.11.29.3.27.54z" fill="url(#telegramGradient)" filter="url(#glow)"/>
</svg>
